<svg width="604" height="300" viewBox="0 0 604 300" fill="none" xmlns="http://www.w3.org/2000/svg">
<path d="M154 222C154 213.716 160.716 207 169 207H589C597.284 207 604 213.716 604 222V268C604 276.284 597.284 283 589 283H169C160.716 283 154 276.284 154 268V222Z" fill="#ffd700"/>
<path d="M223 127C223 118.716 229.716 112 238 112H589C597.284 112 604 118.716 604 127V173C604 181.284 597.284 188 589 188H238C229.716 188 223 181.284 223 173V127Z" fill="#ffd700"/>
<path d="M141 31C141 22.7157 147.716 16 156 16H589C597.284 16 604 22.7157 604 31V77C604 85.2843 597.284 92 589 92H156C147.716 92 141 85.2843 141 77V31Z" fill="#ffd700"/>
<circle cx="93" cy="150" r="150" fill="#000"/>
</svg>
